# xmcd
#
# Track frame offsets:
#  150
#  23517
#  36650
#  57611
#  68127
#  86199
#  93545
#  106104
#  123016
#  138236
#  159838
#  174095
#
# Disc length: 2487 seconds
#
# Revision: 1
# Processed by: cddbd v1.5.1PL2 Copyright (c) Steve Scherf et al.
# Submitted via: Collectorz.com_Music_Collector 6.11
#
DISCID=9409b50c
DTITLE=Lew Jetton and 61 South - Tails From A 2 Lane
DYEAR=2006
DGENRE=Blues
TTITLE0=I Been Cheated
TTITLE1=Cadillac Gal
TTITLE2=Nighttime Into Day
TTITLE3=Cause You Lie To Me
TTITLE4=The Trouble
TTITLE5=Come Out Baby
TTITLE6=Waffle House Woman
TTITLE7=Tattoo Blues
TTITLE8=Two Lane Road
TTITLE9=Sure Are My Baby
TTITLE10=Cb Song
TTITLE11=Rock This House
EXTD=
EXTT0=
EXTT1=
EXTT2=
EXTT3=
EXTT4=
EXTT5=
EXTT6=
EXTT7=
EXTT8=
EXTT9=
EXTT10=
EXTT11=
PLAYORDER=
